<?xml version="1.0" encoding="utf-8"?>
<!-- Generator: Adobe Illustrator 23.0.3, SVG Export Plug-In . SVG Version: 6.00 Build 0)  -->
<svg version="1.1" id="Layer_1" xmlns="http://www.w3.org/2000/svg" xmlns:xlink="http://www.w3.org/1999/xlink" x="0px" y="0px"
	 viewBox="0 0 792 612" style="enable-background:new 0 0 792 612;" xml:space="preserve">
<style type="text/css">
	.st0{fill:#22B573;}
</style>
<path id="Subtraction_2" d="M591.6,358.5V423H201.4v-70.5c3.3,0,6.5-0.3,9.7-1c6-1.2,11.7-3.3,16.9-6.5c5.1-3.1,9.7-7,13.5-11.5
	c3.8-4.6,6.9-9.9,9-15.5c2.2-5.8,3.3-12,3.2-18.3c0-6.2-1.1-12.4-3.2-18.3c-2.1-5.6-5.1-10.9-9-15.5c-3.8-4.6-8.4-8.5-13.5-11.6
	c-5.2-3.1-10.9-5.3-16.9-6.5c-3.2-0.6-6.5-1-9.8-1v-58.6h390.2V253c-29.1-0.4-53,22.9-53.4,52.1c-0.4,29.1,22.9,53,52.1,53.4
	C590.7,358.5,591.1,358.5,591.6,358.5C591.6,358.5,591.6,358.5,591.6,358.5z"/>
<g id="Group_4" transform="translate(6.217 0.349) rotate(30)">
	<path id="Path_5" class="st0" d="M339.1,71.5c-4.8-0.5-9.6-0.6-14.4-0.3c-2.1-0.1-4.3-0.1-6.4-0.2c-1.6,0-3-0.4-3.4-2.2
		c-0.4-1.7,0.4-3.5,1.9-4.4c4.4-2.8,8.7-5.7,13.1-8.6c8.6-5.5,17.2-11,25.8-16.6c2-1.2,4.1-2.3,6.3-3.1c0.9,0.4,1.8,0.6,2.8,0.5
		L487.1,37c14.9,0,29.9,0.1,44.8,0.1c2.7,3.4,2.3,5.1-1.6,7.6c-8.8,5.6-17.7,11.2-26.5,16.7c-1.3,0.5-2.3,1.6-2.8,2.8l12.3,0
		l184.9,0.1c2.4,0,4.4,0.5,4.6,3.3c0.2,2.9-1.8,3.4-4.2,3.6c-22.7,2-45.5,4.1-68.2,6.2c-24,2.3-48,4.7-72,6.9
		c-24.9,2.3-49.7,4.6-74.6,6.9c-0.7,0.1-1.5-0.1-2,0.6c-4.8,0-9.6,0.4-14.4,1.2c-6.5,0.8-13.1,1.1-19.7,1.6c-11,1-22.1,2-33.1,3
		c-3.1,0.3-6.1,0.7-9.2,1c-2.3,0.2-4.8,0.2-5.6-2.5c-0.7-2.4,1.2-3.8,3.1-5c8.8-5.6,17.6-11.3,26.3-17c1.2-0.6,2.2-1.5,2.8-2.7
		c-2-0.7-4.1-0.9-6.2-0.5c-11.2-0.1-22.4-0.1-33.6-0.1c-1.1,0.1-2.1,0.2-3.1,0.5c-0.5-0.5-1.2-0.4-1.8-0.4
		c-11.1,0-22.1-0.1-33.2,0.1C348.9,70.9,344,71,339.1,71.5z"/>
</g>
</svg>
